inDegrees=no
num_controls=7
num_derivatives=13
num_iterations=32
num_multipliers=7
num_parameters=0
num_slacks=7
num_states=26
objective=0.426625
objective_accelerations=0.057859
objective_balance=0.001117
objective_effort=0.015473
objective_height=0.346130
objective_ligament=0.006046
solver_duration=468.781378
status=Solve_Succeeded
success=true
DataType=double
version=3
OpenSimVersion=4.5
endheader
time	/jointset/ground_pelvis/pelvis_tilt/value	/jointset/ground_pelvis/pelvis_tx/value	/jointset/ground_pelvis/pelvis_ty/value	/jointset/hip_l/hip_flexion_l/value	/jointset/hip_l/hip_adduction_l/value	/jointset/hip_l/hip_rotation_l/value	/jointset/back/lumbar_extension/value	/jointset/patellofemoral_l/patellar_flexion_l/value	/jointset/knee_l/knee_flexion_l/value	/jointset/knee_l/knee_adduction_l/value	/jointset/knee_l/knee_rotation_l/value	/jointset/ankle_l/ankle_angle_l/value	/jointset/subtalar_l/subtalar_angle_l/value	/jointset/ground_pelvis/pelvis_tilt/speed	/jointset/ground_pelvis/pelvis_tx/speed	/jointset/ground_pelvis/pelvis_ty/speed	/jointset/hip_l/hip_flexion_l/speed	/jointset/hip_l/hip_adduction_l/speed	/jointset/hip_l/hip_rotation_l/speed	/jointset/back/lumbar_extension/speed	/jointset/patellofemoral_l/patellar_flexion_l/speed	/jointset/knee_l/knee_flexion_l/speed	/jointset/knee_l/knee_adduction_l/speed	/jointset/knee_l/knee_rotation_l/speed	/jointset/ankle_l/ankle_angle_l/speed	/jointset/subtalar_l/subtalar_angle_l/speed	/forceset/tau_hip_flexion_l	/forceset/tau_hip_adduction_l	/forceset/tau_hip_rotation_l	/forceset/tau_knee_flexion_l	/forceset/tau_ankle_angle_l	/forceset/tau_subtalar_angle_l	/forceset/tau_lumbar_extension	lambda_cid13_p0	lambda_cid13_p1	lambda_cid13_p2	lambda_cid13_p3	lambda_cid13_p4	lambda_cid13_p5	lambda_cid14_p0	/jointset/ground_pelvis/pelvis_tilt/accel	/jointset/ground_pelvis/pelvis_tx/accel	/jointset/ground_pelvis/pelvis_ty/accel	/jointset/hip_l/hip_flexion_l/accel	/jointset/hip_l/hip_adduction_l/accel	/jointset/hip_l/hip_rotation_l/accel	/jointset/back/lumbar_extension/accel	/jointset/patellofemoral_l/patellar_flexion_l/accel	/jointset/knee_l/knee_flexion_l/accel	/jointset/knee_l/knee_adduction_l/accel	/jointset/knee_l/knee_rotation_l/accel	/jointset/ankle_l/ankle_angle_l/accel	/jointset/subtalar_l/subtalar_angle_l/accel	gamma_cid13_p0	gamma_cid13_p1	gamma_cid13_p2	gamma_cid13_p3	gamma_cid13_p4	gamma_cid13_p5	gamma_cid14_p0
0	0.04888580596634407	0.1076970027896324	0.9029564854917874	0.1266922784136757	-0.3693400540604444	-0.2214776967363892	-0.2144969558742783	0.2051545070141827	0.2051545070141877	-0.173161481057426	-0.1564993833488449	0.09024313228550125	0.07974077903651103	0	0	0	0	0	0	0	0	0	0	0	0	0	0.1133505335130348	-0.03309863183068445	-0.008924763774902512	-0.2454753492235328	0.1881501442098356	-0.1088125687839139	-0.0473410385348012	28.43172014893436	43.63409591133979	-8.785197934411578	-18.64406450460125	-437.7289737084136	-27.93910248045166	-26.11140768249803	-3.149897772123594	-1.105400325466425	-0.8676940059147574	11.53433898243777	-0.1854498533483147	3.343643942730436	-3.84082966173626	11.09473560747052	11.09473560747002	2.300381688815638	-0.9789696282808802	3.716876258431717	0.8759388055772415	1.992498875664837e-08	7.598660241825891e-07	-1.419042688156614e-07	3.631052628593265e-08	1.680373096183557e-07	3.182462093982744e-07	8.875694594172981e-08
0.01	0.04873302820904893	0.1076435512475527	0.9029144267901217	0.1272524663213623	-0.3693479512118402	-0.2213048722530289	-0.2146911251656334	0.2056923255646574	0.205692325564726	-0.1730483524792115	-0.1565360463378949	0.09042447374790408	0.07978464060282509	-0.03074447708339894	-0.01053654747169146	-0.008384745200509849	0.1115552334971581	-0.001535923270398431	0.03424270553147906	-0.0383584119103234	0.1067367174674855	0.106736717467479	0.02250459569563202	-0.007298918446539718	0.03604056088342204	0.008756476007579067	0.1146278442643757	-0.04154580767007222	-0.009410730666618258	-0.2501709726811753	0.1933232538110042	-0.1023469380274992	-0.04759787671814525	30.42042240880784	40.61400529615285	-8.459216041180524	-20.85650321417264	-439.2701262938972	-34.74628193308047	-26.11154525900599	-3.065067810140182	-1.004710554966782	-0.8197818997327539	10.89375866579183	-0.1312349906180638	3.416301005984154	-3.762030001096207	10.33907317087174	10.33907317087142	2.207444459357077	-0.6003425684047252	3.513508177312326	0.8730234607557834	-2.187265452309238e-09	9.143825806157101e-07	-1.438301551366512e-07	8.289164140800463e-08	-1.190032834458296e-07	3.371676898501442e-07	1.158802185593553e-07
0.02	0.04826713665416062	0.1074893485113671	0.9027893372119268	0.1289137351904388	-0.3693699218812839	-0.2207992772848048	-0.2152546151851987	0.2072726979607032	0.2072726979607088	-0.1727137887541282	-0.156644696434506	0.0909593932539399	0.07991557122169765	-0.06262275951435971	-0.02015023882119876	-0.01660617530584382	0.2202161922918648	-0.002814703610094559	0.06655409696805369	-0.07386414563725954	0.2085107691143143	0.208510769114305	0.04428702936808153	-0.01439742151563751	0.07071560872741482	0.01741381051146212	0.1159051550147564	-0.04999298350936828	-0.009896697558578338	-0.2548665961394168	0.1984963634119638	-0.09588130727104427	-0.04785471490212489	32.45738103115819	37.60232383533933	-8.153834581144498	-23.12755018436499	-439.935052623227	-41.36225783472694	-26.11170554019213	-3.376658841635765	-0.9208291010298371	-0.8350309868795728	10.9554840419476	-0.1340212672078629	2.957381123749532	-3.270294025058766	10.10220244333918	10.10220244333943	2.155949284179155	-0.9388865527925387	3.443773650545556	0.8561105048379402	-2.429951966126684e-08	1.068899137048831e-06	-1.45756041457641e-07	1.294727565300766e-07	-4.060438765100149e-07	3.56089170302014e-07	1.430034911769808e-07
0.03	0.04747952421053221	0.1072419730167109	0.9025823855561327	0.131649363942975	-0.3694041314978584	-0.2199787472411334	-0.2161607276340492	0.2098514168532523	0.2098514168532313	-0.1721654338368461	-0.1568241071890546	0.09183481277249746	0.08013196689118571	-0.09476869411161185	-0.02933404709868606	-0.02479500325999801	0.3265577446689808	-0.004059667327567912	0.0975852994868264	-0.1071138137388747	0.3068536069508316	0.3068536069508364	0.06518145156147089	-0.02130094624969399	0.1041739299691765	0.02577542224106861	0.1114269087140052	-0.04528569437076656	-0.00873013310331147	-0.248647569360611	0.1897904813449015	-0.09680559609941455	-0.04464885230051049	29.60848129960192	38.28154830513321	-8.00966731387734	-20.96626450185324	-439.5397853910166	-39.05919871619312	-26.11153071724132	-3.113896697686929	-0.9185086573314171	-0.8125181792559129	10.42071999281047	-0.1247340118611149	3.181052270165568	-3.315623643562817	9.643385377813821	9.643385377815793	2.025978186601834	-0.5385664432854631	3.267735890475068	0.8125507927731876	-3.304727099562921e-08	1.299319271556092e-06	-9.352013116092729e-08	1.554976302266742e-07	-5.081690714482127e-07	3.473076199961685e-07	1.659703305126097e-07
0.04	0.04637438523513929	0.106902489046035	0.9022932037248844	0.1354378540507231	-0.3694517907691781	-0.218846892681411	-0.2173920008520778	0.2134021763089022	0.2134021763089148	-0.171414176797619	-0.1570670493929813	0.09303899040938836	0.08042925153512027	-0.1261280658655224	-0.03857193402516269	-0.03305221039667886	0.43078846333479	-0.005504634558783614	0.1288190001745766	-0.1388962994744667	0.4029188817475841	0.4029188817476008	0.08486745374216292	-0.02710371136666882	0.1364672323902822	0.03359160540071265	0.1069486624133186	-0.04057840523231188	-0.007563568647271877	-0.242428542581935	0.1810845992777852	-0.09772988492796904	-0.04144298969876858	26.80312088654516	38.97108023568408	-7.887626609542228	-18.8528435692497	-438.3453352656567	-36.57280438000033	-26.11010404741273	-3.219346272967292	-0.9316448308279458	-0.8487068233848958	10.53331729968635	-0.1740219699563278	2.997880757545019	-2.976857551854113	9.646689835386209	9.646689835386045	1.914265281639719	-0.7187346293762432	3.210769886414047	0.7470247908453621	-4.151946556969067e-08	1.531304428291686e-06	-4.016748278962168e-08	1.810986638938805e-07	-6.064815777652562e-07	3.379548731798546e-07	1.888514701929396e-07
0.05	0.04496029242259184	0.1064708445933555	0.9019211630067215	0.1402559191505796	-0.3695138014003241	-0.2174061243789997	-0.2189345113143263	0.2179011255106736	0.2179011255107057	-0.1704701725152928	-0.157365604720463	0.09456043100109207	0.08080328515427883	-0.1564282203967211	-0.04771490526442434	-0.04135171946912244	0.5321498595780674	-0.006819326755650408	0.1590446529924051	-0.1694994912352958	0.496303868029819	0.4963038680298104	0.1039068034420272	-0.0325888934403999	0.1676221219703099	0.04125023287824887	0.1031276554685294	-0.03861532115441539	-0.006591925324624292	-0.2387057949615646	0.1753208679175285	-0.09655271624501058	-0.03861596198630669	25.04620438542687	38.65635493465749	-7.710541925470593	-17.81075097983428	-437.7634406941977	-36.38163662506415	-26.10638675177715	-2.89599793299501	-0.8992791574330962	-0.8200629748925221	9.836345776634305	-0.09869283891878919	2.991461032507103	-3.086104726881532	9.099301483409409	9.099301483405972	1.895038943609942	-0.4606822809716625	3.038079058654227	0.7803119450884375	-4.147216712140863e-08	1.551629368823776e-06	-1.166861849461793e-07	1.91085735334791e-07	-7.081858290721724e-07	4.055974967096694e-07	2.041922865890584e-07
0.06	0.04325106848675266	0.1059490392508919	0.9014662291926899	0.1460673572108066	-0.369586658952307	-0.2156717888506619	-0.2207798646419337	0.2233169042669828	0.223316904266982	-0.1693365209100168	-0.1577184663256651	0.09638746660157405	0.0812549110919895	-0.1851542905197806	-0.05660411198198173	-0.04963082957042417	0.6294630554208314	-0.00767401872718093	0.1875324453544415	-0.1994648725434743	0.5862847926627293	0.5862847926626965	0.1227969183199001	-0.03796496689812216	0.1975862341446077	0.04911006911101192	0.09930664852300629	-0.03665223707652916	-0.005620282001707127	-0.2349830473417031	0.1695571365571003	-0.09537554756211788	-0.03578893427430051	23.32860027561648	38.35022225561746	-7.552506458941054	-16.80996935270017	-436.4627842943046	-36.02245701051736	-26.0991628090989	-2.90452939133928	-0.8808919264872772	-0.8446270291565173	9.723677219583754	-0.08202192488908951	2.650308666386616	-2.849295461323935	8.965877505521224	8.96587750552133	1.884418317241474	-0.6969129061744964	2.972614405267837	0.787266541890652	-4.106615317744897e-08	1.56304230025256e-06	-1.986731544933838e-07	2.004153767872259e-07	-8.100328906944517e-07	4.764820305698474e-07	2.192156156889998e-07
0.07000000000000001	0.0412581118125531	0.1053395939417859	0.9009278611230974	0.152838407439798	-0.3696668349350682	-0.2136605311688632	-0.2229170539010376	0.2296190105296448	0.2296190105296283	-0.1680161632586144	-0.158125519858335	0.09850913819434469	0.08178528227938898	-0.2135455355821756	-0.06524140157723846	-0.05810370802396113	0.724615967214983	-0.008387658103066277	0.2146522314047925	-0.2274674186341431	0.6738045144287259	0.6738045144287101	0.1410709614936586	-0.04334232329113395	0.2266084511871243	0.05690273653706081	0.09555276538517878	-0.03486446891133958	-0.004614156922694668	-0.2320190412741742	0.1647262607574699	-0.09408444599218328	-0.03297921076638707	21.91847070859498	37.98170013741766	-7.431272641664505	-16.08103233747179	-435.1753729442778	-35.77346117543868	-26.08723261893205	-2.822677711441575	-0.8485750410881131	-0.8579200459125296	9.391448511480062	-0.07019954787789928	2.73286488685625	-2.69990008647806	8.595183670319443	8.59518367032161	1.768592337474421	-0.4427018341610991	2.846125009650784	0.7658315031433334	-3.856756318882908e-08	1.388510093768348e-06	-2.325731311781658e-07	1.878201192898566e-07	-7.76396807867501e-07	4.698267392241462e-07	2.03450242051486e-07
0.08	0.03897799155816498	0.1046450902237183	0.900302903910479	0.1605570568571885	-0.369754980232391	-0.2113800653640711	-0.2253191018017481	0.2367863468416347	0.2367863468416408	-0.1665191261714765	-0.1585832579205518	0.1009168518887245	0.08239169307308541	-0.2425870065546564	-0.07361579377430502	-0.06694865817559448	0.8189828930950926	-0.009267881636537309	0.2413740699550324	-0.2524366008663809	0.7593308025219504	0.7593308025219397	0.1581328054686705	-0.04810187281600534	0.2547946544659295	0.06431799037035892	0.09179888224796465	-0.0330767007461951	-0.003608031843797543	-0.2290550352062616	0.1598953849579535	-0.09279334442226127	-0.03016948725807646	20.54356824390415	37.621106005061	-7.327404886941109	-15.38070898957685	-433.2370387515156	-35.36884713743321	-26.06910042337826	-3.034574573356387	-0.8283124468494236	-0.9190413687757887	9.566480036775383	-0.1153387564062195	2.570719166364417	-2.242622689637745	8.567190770966803	8.567190770964517	1.641978477492187	-0.5733515325464273	2.805411652525335	0.7117838233404278	-3.593396829410208e-08	1.201981426773619e-06	-2.633707212266623e-07	1.738103521828226e-07	-7.340198770115677e-07	4.581688785103239e-07	1.856985004954268e-07
